<svg xmlns="http://www.w3.org/2000/svg" xml:space="preserve" id="Layer_1" x="0" y="0" version="1.1" viewBox="0 0 100 27"><path fill="rgb(245, 245, 245)" d="M48.9 1.9c.2-.6.8-.9 1.4-.7.6.2.9.8.7 1.4-.2.6-.8.9-1.4.7-.6-.2-.9-.8-.7-1.4zM55.2 24.6l-2.8 1.3-1.4-2.5-2.5 1.2-1.4-2.5-2.3 1.2-1.6-2.6-2.4 1.1-1.5-2.2-2.3 1-1.4-2.5 5.6-16.3 5.9 2s-.6 3.8 2.5 4.8c3 .9 4.8-2.2 4.8-2.2l6 2-5.2 16.2zM52.6 3.1c.2-.6.8-.9 1.4-.7.6.2.9.8.7 1.4-.2.6-.8.9-1.4.7-.5-.2-.8-.8-.7-1.4z"/><g fill="#FFF"><path d="M2 19.8c-.3 0-.5-.1-.7-.3-.2-.2-.3-.4-.3-.7V5.4c0-.3.1-.5.3-.7.2-.3.4-.3.7-.3.3 0 .5.1.7.3.3.1.4.4.4.7V9h1.3c.5 0 .9.1 1.3.3.4.2.8.4 1.1.7.3.3.5.6.7 1 .2.4.3.8.3 1.3v4.3c0 .5-.1.9-.3 1.3-.2.4-.4.7-.7 1-.3.3-.7.5-1.1.7-.4.2-.8.3-1.3.3H2zM3.1 11v6.8h1.3c.4 0 .7-.1.9-.4.2-.2.4-.5.4-.9v-4.3c0-.3-.1-.6-.4-.9-.3-.2-.6-.3-1-.3H3.1zM13 19.9c-.5 0-.9-.1-1.3-.3-.4-.2-.8-.4-1.1-.7-.3-.3-.5-.6-.7-1-.2-.4-.3-.8-.3-1.3v-4.5c0-.5.1-.9.3-1.3.2-.4.4-.7.7-1 .3-.3.7-.5 1.1-.7.4-.2.8-.3 1.3-.3s.9.1 1.3.3c.4.2.8.4 1.1.7.3.3.5.6.7 1 .2.4.3.8.3 1.3v4.5c0 .5-.1.9-.3 1.3-.2.4-.4.7-.7 1-.3.3-.7.5-1.1.7-.4.2-.8.3-1.3.3zm0-9c-.4 0-.7.1-.9.4-.2.2-.4.5-.4.9v4.5c0 .3.1.6.4.9.2.2.5.4.9.4s.7-.1.9-.4c.2-.2.4-.5.4-.9v-4.5c0-.3-.1-.6-.4-.9-.2-.3-.5-.4-.9-.4zM21.7 19.9c-.5 0-.9-.1-1.3-.3-.4-.2-.8-.4-1.1-.7-.3-.3-.5-.6-.7-1-.2-.4-.3-.8-.3-1.3v-4.5c0-.5.1-.9.3-1.3.2-.4.4-.7.7-1 .3-.3.7-.5 1.1-.7.4-.2.8-.3 1.3-.3s.9.1 1.3.3c.4.2.8.4 1.1.7.3.3.5.6.7 1 .2.4.3.8.3 1.3v4.5c0 .5-.1.9-.3 1.3-.2.4-.4.7-.7 1-.3.3-.7.5-1.1.7-.4.2-.8.3-1.3.3zm0-9c-.4 0-.7.1-.9.4-.2.2-.4.5-.4.9v4.5c0 .3.1.6.4.9.2.2.5.4.9.4s.7-.1.9-.4c.2-.2.4-.5.4-.9v-4.5c0-.3-.1-.6-.4-.9-.2-.3-.5-.4-.9-.4zM34.3 18.4c.1.3.2.5.1.8-.1.3-.2.5-.5.6-.2.1-.5.2-.8.1-.3-.1-.5-.2-.6-.5l-2.4-4.3-.7.7v3.1c0 .3-.1.5-.3.7-.2.2-.4.3-.7.3-.3 0-.5-.1-.7-.3-.2-.2-.3-.4-.3-.7V5.4c0-.3.1-.5.3-.7.2-.2.4-.3.7-.3.3 0 .5.1.7.3.2.2.3.4.3.7v7.4l3.3-3.6c.2-.2.4-.3.7-.3.3 0 .5.1.8.3.2.2.3.4.3.7 0 .3-.1.5-.3.7l-2.7 2.9 2.8 4.9z"/></g><g fill="#FFF"><path d="M65.2 17.6c.3-.2.4-.5.4-.9s-.2-.7-.5-.8L63 14.4c-.4-.3-.7-.6-.9-1-.2-.4-.4-.8-.4-1.3s0-.9.2-1.3.4-.8.8-1.1c.3-.4.7-.6 1.2-.7.4-.1.9-.2 1.4-.1.5.1.9.2 1.3.5s.7.6.9 1c.1.2.2.5.1.8s-.2.5-.5.6c-.2.1-.5.2-.8.1-.3-.1-.5-.2-.6-.5-.2-.3-.4-.5-.7-.5-.3-.1-.6 0-.9.2-.3.2-.4.5-.3.8 0 .3.2.6.4.8l2.1 1.5c.4.3.7.6 1 1 .2.4.4.8.4 1.3s0 .9-.2 1.4c-.2.4-.5.8-.8 1.1-.4.3-.8.5-1.2.7-.5.1-.9.2-1.4.1-.5-.1-.9-.2-1.3-.5s-.7-.6-1-1c-.1-.2-.2-.5-.1-.8.1-.3.2-.5.5-.6.3-.1.5-.2.8-.1.3.1.5.2.6.5.2.3.4.5.8.5.2.1.6 0 .8-.2zM71.8 11v7.9c0 .3-.1.5-.3.7-.2.2-.5.3-.7.3-.3 0-.5-.1-.7-.3-.2-.2-.3-.4-.3-.7V10c0-.3.1-.5.3-.7.2-.2.4-.3.7-.3h6.9c.5 0 .9.1 1.3.3.4.2.8.4 1.1.7.3.3.6.6.7 1 .2.4.3.8.3 1.3V19c0 .3-.1.5-.3.7-.2.2-.5.3-.7.3-.3 0-.5-.1-.7-.3-.2-.2-.3-.4-.3-.7v-6.7c0-.3-.1-.6-.4-.9-.4-.3-.7-.4-1.1-.4h-1.3v7.9c0 .3-.1.5-.3.7-.2.2-.5.3-.7.3-.3 0-.5-.1-.7-.3-.2-.2-.3-.4-.3-.7V11h-2.5zM84.4 7.7c-.4 0-.7-.1-.9-.4-.2-.2-.4-.5-.4-.9 0-.3.1-.6.4-.9.2-.2.5-.4.9-.4s.7.1.9.4c.2.2.4.5.4.9 0 .3-.1.6-.4.9-.3.3-.6.4-.9.4zm1 11.2c0 .3-.1.5-.3.7-.2.2-.4.3-.7.3-.3 0-.5-.1-.7-.3-.2-.2-.3-.4-.3-.7v-9c0-.3.1-.5.3-.7.2-.2.4-.3.7-.3.3 0 .5.1.7.3.2.2.3.4.3.7v9zM89.4 19.8c-.4-.3-.8-.6-1.1-1-.3-.4-.4-.9-.4-1.4v-12c0-.3.1-.5.3-.7.2-.2.5-.3.7-.3.3 0 .5.1.7.3.3.1.4.4.4.7v12c0 .3.1.5.4.7.2.2.4.4.5.6.1.3 0 .5-.1.8-.1.2-.3.4-.6.5-.3-.1-.6-.1-.8-.2zM94.4 19.7c-.6-.3-1.2-.7-1.5-1.2-.4-.5-.6-1.1-.6-1.8v-4.5c0-.5.1-.9.3-1.3.2-.4.4-.7.7-1 .3-.3.7-.5 1.1-.7.4-.2.8-.3 1.3-.3s.9.1 1.3.3c.4.2.8.4 1.1.7.3.3.5.6.7 1 .2.4.3.8.3 1.3v2.3c0 .3-.1.5-.3.7-.2.2-.4.3-.7.3h-3.6v1.2c0 .3.1.5.2.7.1.2.3.4.6.5.2.1.5.1.7.1.2 0 .5-.2.6-.3.2-.2.4-.3.7-.3.3 0 .5.1.8.3.2.2.3.5.3.7s-.2.3-.4.6c-.5.5-1.1.8-1.7.9-.6.1-1.3 0-1.9-.2zm1.3-8.8c-.4 0-.7.1-.9.4-.2.2-.4.5-.4.9v1.2h2.5v-1.2c0-.3-.1-.6-.4-.9-.2-.3-.5-.4-.8-.4z"/></g><path fill="#FFF" d="M47.6 13.2V12c0-.2-.1-.5-.2-.7-.1-.2-.3-.4-.5-.4-.2-.1-.5-.1-.7-.1-.2 0-.4.2-.6.3-.2.2-.4.3-.7.3-.3 0-.5-.1-.7-.3-.2-.2-.3-.5-.3-.7 0-.3.1-.5.3-.7.5-.5 1-.8 1.7-.9.5-.1 1.1 0 1.8.2.6.3 1.1.7 1.5 1.2.4.5.5 1.1.5 1.8v6.8c0 .3-.1.5-.3.7-.2.2-.4.3-.7.3h-2.3c-.5 0-.9-.1-1.3-.3-.4-.2-.7-.4-1-.7-.3-.3-.5-.6-.7-1-.2-.4-.3-.8-.3-1.3s.1-.9.3-1.3c.2-.4.4-.7.7-1 .3-.3.6-.5 1-.7.4-.2.8-.3 1.3-.3h1.2zm-1.2 2.1c-.3 0-.6.1-.9.4-.2.2-.4.5-.4.9 0 .3.1.6.4.9.2.2.5.4.9.4h1.2v-2.5h-1.2z"/></svg>